<?xml version="1.0" encoding="utf-8"?>
<!-- Generator: Adobe Illustrator 18.1.0, SVG Export Plug-In . SVG Version: 6.00 Build 0)  -->
<svg version="1.1" id="Layer_1" xmlns="http://www.w3.org/2000/svg" xmlns:xlink="http://www.w3.org/1999/xlink" x="0px" y="0px"
	 viewBox="0 0 623.6 258" enable-background="new 0 0 623.6 258" xml:space="preserve">
<g>
	<path d="M28,257.2H8.7v-90.8H28V257.2z"/>
	<path d="M99.2,257.2l-35-64.1v64.1H46.6v-90.8h23.1l34.3,64.3v-64.3h17.5v90.8H99.2z"/>
	<path d="M154.8,189.4c0,18.9,47.1,7.3,47.1,40.6c0,20.6-16.7,28.7-34.7,28.7c-16.3,0-33.5-5.3-35.1-28.8l17.5-2.6
		c1.5,8.8,4.8,16.2,18,16.2c8,0,15-2.8,15-11.2c0-18.9-47.3-5.8-47.3-40.1c0-17.7,14.8-27.3,33.1-27.3c16.2,0,31,5,32.3,26.6
		l-17.7,2c-0.8-8.5-4.3-13.7-14.9-13.7C159,179.8,154.8,183.7,154.8,189.4z"/>
	<path d="M231.5,257.2v-74.5h-26.7v-16.3h72.6v16.3h-26.4v74.5H231.5z"/>
	<path d="M306.9,257.2h-19.3v-90.8h19.3V257.2z"/>
	<path d="M343.9,257.2v-74.5h-26.7v-16.3h72.6v16.3h-26.4v74.5H343.9z"/>
	<path d="M451.9,221.8v-55.3h19.3v58c0,24.1-13.9,34.2-36.6,34.2c-25.1,0-35.7-11-35.7-34.7v-57.5h19.4v54.9
		c0,14.2,3.6,21.2,17,21.2C448.2,242.6,451.9,236.6,451.9,221.8z"/>
	<path d="M507.2,257.2v-74.5h-26.7v-16.3h72.6v16.3h-26.4v74.5H507.2z"/>
	<path d="M582.7,241h40.5v16.3h-59.8v-90.8h57.5v16.2h-38.2V204h36v15.8h-36V241z"/>
</g>
<g>
	<path d="M23.5,70.4c0,18.9,47.1,7.3,47.1,40.6c0,20.6-16.7,28.7-34.7,28.7c-16.3,0-33.5-5.3-35.1-28.8l17.5-2.6
		c1.5,8.8,4.8,16.2,18,16.2c8,0,15-2.8,15-11.2c0-18.9-47.3-5.8-47.3-40.1c0-17.7,14.8-27.3,33.1-27.3c16.2,0,31,5,32.3,26.6
		l-17.7,2c-0.8-8.5-4.3-13.7-14.9-13.7C27.8,60.7,23.5,64.6,23.5,70.4z"/>
	<path d="M100.2,138.2V63.7H73.5V47.4h72.6v16.3h-26.4v74.5H100.2z"/>
	<path d="M192.1,47.4l32.1,90.8H203l-7.5-22.1h-30.2l-7,22.1h-19.9L168,47.4H192.1z M180.2,65.6h-0.5l-11.2,35.1h22.9L180.2,65.6z"
		/>
	<path d="M305,138.2h-20.8l-17.9-34.5h-12.4v34.5h-19.2V47.4h35.3c22.6,0,30.1,12.2,30.1,25.6c0,13.4-6.4,21.7-15.7,25.9L305,138.2z
		 M263.8,88.5c9,0,16.4-3.4,16.4-13.7c0-8.6-5.4-11.9-15.7-11.9h-10.7v25.6H263.8z"/>
	<path d="M331.1,138.2V63.7h-26.7V47.4H377v16.3h-26.4v74.5H331.1z"/>
	<path d="M490.2,138.2H471V47.4h34.3c23.2,0,30.2,13.9,30.2,28.3c0,21.8-11.9,33.1-35.5,33.1h-9.9V138.2z M498,93.3
		c9.9,0,17.8-2.9,17.8-16.2c0-11.7-6.9-14.2-16.3-14.2h-9.3v30.3H498z"/>
	<path fill="#00ADEE" d="M425.4,1.2l-35.1,24.6c-0.3,0.2-0.5,0.6-0.5,1v14.4c0,1,1.1,1.6,1.9,1l22.1-15c0.8-0.6,1.9,0,1.9,1v78.9
		c0,5.3,4.4,9.7,9.7,9.7l0,0c5.4,0,9.7-4.3,9.7-9.7V28.3c0-1,1.1-1.6,1.9-1l22.1,15c0.8,0.6,1.9,0,1.9-1V26.9c0-0.4-0.2-0.8-0.5-1
		L425.4,1.2"/>
</g>
</svg>
